<?xml version="1.0" encoding="UTF-8" standalone="no"?>
<!-- Created with Inkscape (http://www.inkscape.org/) -->
<svg
   xmlns:dc="http://purl.org/dc/elements/1.1/"
   xmlns:cc="http://web.resource.org/cc/"
   xmlns:rdf="http://www.w3.org/1999/02/22-rdf-syntax-ns#"
   xmlns:svg="http://www.w3.org/2000/svg"
   xmlns="http://www.w3.org/2000/svg"
   xmlns:sodipodi="http://sodipodi.sourceforge.net/DTD/sodipodi-0.dtd"
   xmlns:inkscape="http://www.inkscape.org/namespaces/inkscape"
   id="svg2"
   sodipodi:version="0.32"
   inkscape:version="0.45.1"
   width="81.738724"
   height="81.738724"
   version="1.0"
   sodipodi:docbase="C:\Dokumente und Einstellungen\uwemuell\Desktop"
   sodipodi:docname="Vetlogo.svg"
   inkscape:output_extension="org.inkscape.output.svg.inkscape">
  <metadata
     id="metadata7">
    <rdf:RDF>
      <cc:Work
         rdf:about="">
        <dc:format>image/svg+xml</dc:format>
        <dc:type
           rdf:resource="http://purl.org/dc/dcmitype/StillImage" />
      </cc:Work>
    </rdf:RDF>
  </metadata>
  <defs
     id="defs5" />
  <sodipodi:namedview
     inkscape:window-height="608"
     inkscape:window-width="797"
     inkscape:pageshadow="2"
     inkscape:pageopacity="0.0"
     guidetolerance="10.0"
     gridtolerance="10.0"
     objecttolerance="10.0"
     borderopacity="1.0"
     bordercolor="#666666"
     pagecolor="#ffffff"
     id="base"
     inkscape:zoom="3.4272727"
     inkscape:cx="75.821181"
     inkscape:cy="60.175877"
     inkscape:window-x="44"
     inkscape:window-y="58"
     inkscape:current-layer="svg2" />
  <path
     sodipodi:type="arc"
     style="fill:#c1121c;fill-opacity:1;stroke:#000000;stroke-width:1.5;stroke-miterlimit:4;stroke-dasharray:none;stroke-opacity:1"
     id="path2189"
     sodipodi:cx="-6.2732096"
     sodipodi:cy="74.549072"
     sodipodi:rx="40.119362"
     sodipodi:ry="40.119362"
     d="M 33.846152 74.549072 A 40.119362 40.119362 0 1 1  -46.392571,74.549072 A 40.119362 40.119362 0 1 1  33.846152 74.549072 z"
     transform="translate(47.142571,-33.67971)" />
  <path
     style="fill:#ffffff;fill-opacity:1;stroke:#000000;stroke-width:1.79999995;stroke-linejoin:miter;stroke-miterlimit:4;stroke-dasharray:none;stroke-opacity:1"
     d="M 9.0256114,23.839424 L 29.525611,71.808174 L 52.244361,71.808174 L 72.713111,23.839424 L 59.619361,23.839424 L 41.619361,65.964424 L 40.119361,65.964424 L 22.119361,23.839424 L 9.0256114,23.839424 z "
     id="rect6747"
     sodipodi:nodetypes="ccccccccc" />
  <rect
     style="fill:#f2f2f2;fill-opacity:1;stroke:none;stroke-width:0.80000001;stroke-linecap:round;stroke-linejoin:miter;stroke-miterlimit:4;stroke-dasharray:none;stroke-opacity:1"
     id="rect3134"
     width="1.5842175"
     height="42.891247"
     x="42.437962"
     y="5.6394124" />
  <g
     id="g3134"
     transform="translate(-28.958698,25.594615)">
    <path
       sodipodi:nodetypes="cssssscsssssccc"
       id="path6762"
       d="M 55.17994,-10.049062 C 55.17994,-10.049062 71.743249,-10.049065 72.66536,-10.049065 C 75.915111,-10.049065 77.264853,-7.9498454 76.387926,-5.5259424 C 74.516308,-0.35263043 63.490967,-2.0123594 62.96843,4.3699736 C 62.434651,10.889623 78.452269,7.2535256 78.123928,11.539512 C 77.889871,14.631524 67.878388,13.587502 65.680774,19.53432 C 63.872553,24.427427 68.845059,26.048261 72.859161,26.308921 C 69.015196,25.484619 65.508962,23.624983 67.610578,19.946954 C 70.633456,14.656626 80.913854,16.767319 81.021223,11.023718 C 81.125925,5.4228116 68.026564,6.7671876 67.438139,4.4731326 C 66.652319,1.4095016 81.021223,2.2842566 81.021223,-6.2553854 C 81.021223,-8.8802024 79.854321,-13.889138 72.66536,-13.889138 C 69.453516,-13.889138 55.17994,-13.889135 55.17994,-13.889135 L 58.588292,-11.969098 L 55.17994,-10.049062 z "
       style="fill:#000000;fill-opacity:1;fill-rule:evenodd;stroke:none;stroke-width:1px;stroke-linecap:butt;stroke-linejoin:miter;stroke-opacity:1" />
    <path
       transform="matrix(0.2561856,0,0,0.1176723,45.216305,-14.035276)"
       d="M 65.139256 12.874667 A 3.8295755 3.5377984 0 1 1  57.480105,12.874667 A 3.8295755 3.5377984 0 1 1  65.139256 12.874667 z"
       sodipodi:ry="3.5377984"
       sodipodi:rx="3.8295755"
       sodipodi:cy="12.874667"
       sodipodi:cx="61.309681"
       id="path2160"
       style="opacity:1;fill:#ffffff;fill-opacity:1;stroke:none;stroke-width:1;stroke-linejoin:miter;stroke-miterlimit:4;stroke-dasharray:none;stroke-opacity:1"
       sodipodi:type="arc" />
    <path
       id="path2162"
       d="M 56.427872,-12.088458 L 52.24994,-12.088458"
       style="fill:none;fill-rule:evenodd;stroke:#000000;stroke-width:0.80000001;stroke-linecap:round;stroke-linejoin:miter;stroke-miterlimit:4;stroke-dasharray:none;stroke-opacity:1" />
  </g>
  <rect
     style="fill:#f2f2f2;fill-opacity:1;stroke:none;stroke-width:0.80000001;stroke-linecap:round;stroke-linejoin:miter;stroke-miterlimit:4;stroke-dasharray:none;stroke-opacity:1"
     id="rect7024"
     width="1.5842175"
     height="5.3912468"
     x="42.437962"
     y="22.43384" />
  <rect
     style="fill:#f2f2f2;fill-opacity:1;stroke:none;stroke-width:0.80000001;stroke-linecap:round;stroke-linejoin:miter;stroke-miterlimit:4;stroke-dasharray:none;stroke-opacity:1"
     id="rect7026"
     width="1.5842175"
     height="5.3912468"
     x="42.437962"
     y="38.433846" />
  <rect
     style="fill:#000000;fill-opacity:1;stroke:none;stroke-width:0.80000001;stroke-linecap:round;stroke-linejoin:miter;stroke-miterlimit:4;stroke-dasharray:none;stroke-opacity:1"
     id="rect7028"
     height="43.875"
     x="41.637962"
     y="5.1919656"
     width="0.80000001" />
  <rect
     style="fill:#000000;fill-opacity:1;stroke:none;stroke-width:0.80000001;stroke-linecap:round;stroke-linejoin:miter;stroke-miterlimit:4;stroke-dasharray:none;stroke-opacity:1"
     id="rect7030"
     height="43.875"
     x="44.022182"
     y="5.1919656"
     width="0.80000001" />
  <rect
     style="fill:#000000;fill-opacity:1;stroke:none;stroke-width:0.80000001;stroke-linecap:round;stroke-linejoin:miter;stroke-miterlimit:4;stroke-dasharray:none;stroke-opacity:1"
     id="rect7032"
     height="2.84375"
     x="-5.9919648"
     y="41.808197"
     width="0.80000001"
     transform="matrix(0,-1,1,0,0,0)" />
  <rect
     style="fill:#000000;fill-opacity:1;stroke:none;stroke-width:0.80000001;stroke-linecap:round;stroke-linejoin:miter;stroke-miterlimit:4;stroke-dasharray:none;stroke-opacity:1"
     id="rect7034"
     height="2.84375"
     x="-49.066967"
     y="41.808197"
     width="0.80000001"
     transform="matrix(0,-1,1,0,0,0)" />
</svg>
